P3
2 3
255
250 10 10      10 225 10
10 10 200      175 10 10
10 150 10      10 10 125
